<svg height="90" viewBox="0 0 90 90" width="90" xmlns="http://www.w3.org/2000/svg"><g fill="#333"><path d="m45 90a45 45 0 1 1 45-45 45.05 45.05 0 0 1 -45 45zm0-84.277a39.278 39.278 0 1 0 39.281 39.277 39.322 39.322 0 0 0 -39.281-39.277z"/><path d="m50.241 22.78a63.54 63.54 0 0 1 -4.22-11.3v31.869a2.938 2.938 0 1 1 -1.879-.051v-31.856a63.6 63.6 0 0 1 -4.228 11.338 115.111 115.111 0 0 1 -7.739 13.113l2.746 37.579s2.61 2.913 10.151 2.916h.01c7.54 0 10.151-2.916 10.151-2.916l2.746-37.579a115.02 115.02 0 0 1 -7.738-13.113z"/></g></svg>